<svg xmlns="http://www.w3.org/2000/svg" id="closeModal" viewBox="0 0 20 20">
    <path d="M11.8323 10.0157L19.6199 2.22785C20.1267 1.72129 20.1267 0.902238 19.6199 0.395672C19.1134 -0.110895 18.2943 -0.110895 17.7877 0.395672L9.9999 8.18351L2.21229 0.395672C1.70548 -0.110895 0.88667 -0.110895 0.380103 0.395672C-0.126701 0.902238 -0.126701 1.72129 0.380103 2.22785L8.16771 10.0157L0.380103 17.8035C-0.126701 18.3101 -0.126701 19.1291 0.380103 19.6357C0.632556 19.8884 0.964494 20.0153 1.29619 20.0153C1.6279 20.0153 1.9596 19.8884 2.21229 19.6357L9.9999 11.8479L17.7877 19.6357C18.0404 19.8884 18.3721 20.0153 18.7038 20.0153C19.0355 20.0153 19.3672 19.8884 19.6199 19.6357C20.1267 19.1291 20.1267 18.3101 19.6199 17.8035L11.8323 10.0157Z" fill="inherit"/>
</svg>